<svg xmlns="http://www.w3.org/2000/svg" width="217" height="45" viewBox="0 0 217 45" fill="none"><path d="M5.58726 18.7334C5.49281 16.4694 5.51711 14.2021 5.66006 11.9407C5.76138 10.3364 6.00809 8.74447 6.3972 7.18396C6.64684 6.09699 7.084 5.06079 7.68946 4.12093C8.16423 3.42458 8.78502 2.83769 9.50955 2.40023C10.2013 1.99044 10.9685 1.72096 11.7665 1.60745C12.6492 1.47784 13.5405 1.41459 14.4329 1.41826C15.4995 1.35388 16.5604 1.61486 17.4725 2.166C18.1696 2.66849 18.6581 3.40504 18.8466 4.23805C19.0928 5.27042 19.1574 6.33706 19.0377 7.39116C18.9285 8.60736 18.7374 9.92266 18.4735 11.3551C18.2096 12.7875 17.9093 14.292 17.5635 15.8595C17.2176 17.4271 17.0265 19.0216 16.7626 20.6432C18.337 20.7333 19.9387 20.8865 21.5677 21.0847C23.1966 21.2829 24.8347 21.5622 26.4728 21.9045C26.5094 20.7654 26.6035 19.6289 26.7549 18.4991C27.0401 15.5442 27.3859 13.0247 27.7924 10.9407C28.1114 9.16543 28.5927 7.42256 29.2302 5.73352C29.6436 4.55671 30.2594 3.45948 31.0503 2.49032C31.6665 1.77235 32.4295 1.19201 33.289 0.787641C34.1069 0.427489 34.9879 0.228589 35.8827 0.202063C36.8678 0.176261 37.8535 0.224446 38.8312 0.346206C40.0649 0.408423 41.2428 0.874207 42.1802 1.67051C42.89 2.40478 43.321 3.35984 43.3997 4.37318C43.5127 5.64369 43.4018 6.92398 43.072 8.15691C42.7262 9.58633 42.2864 11.1178 41.7525 12.7515C41.2186 14.3851 40.6452 16.0968 40.0325 17.8865C39.4258 19.6883 38.901 21.4901 38.4581 23.2919C38.0939 24.8522 37.8385 26.4355 37.6937 28.0305C37.5299 29.6161 37.4025 31.1296 37.3115 32.535C37.2204 33.7422 37.1203 34.8593 37.002 35.8683C36.918 36.7541 36.7443 37.6294 36.4833 38.4808C36.3181 39.0975 36.0061 39.6659 35.5733 40.1385C35.3666 40.3264 35.1175 40.4629 34.8469 40.5365C34.5763 40.6102 34.2918 40.6189 34.0171 40.5619C33.2104 40.4398 32.4295 40.1872 31.7056 39.8142C30.7743 39.3083 29.9739 38.596 29.3668 37.7331C28.5126 36.5169 27.8698 35.1681 27.4648 33.7422C26.8578 31.615 26.5246 29.4205 26.4728 27.2107C24.9621 27.1206 23.3422 27.1026 21.6132 27.2107C19.8841 27.3188 18.1732 27.4179 16.4805 27.6341C16.4805 28.0395 16.4805 28.4359 16.4805 28.8233C16.4805 29.2107 16.4805 29.5801 16.5533 29.9224C16.5533 31.0035 16.6079 32.0125 16.6261 32.9314C16.6543 33.718 16.6055 34.5054 16.4805 35.2827C16.414 35.8395 16.204 36.3699 15.8708 36.8232C15.7071 37.0129 15.5009 37.1622 15.2686 37.2592C15.0364 37.3561 14.7845 37.3981 14.533 37.3818C13.9011 37.3745 13.2732 37.2805 12.6674 37.1025C11.9262 36.8763 11.241 36.4988 10.6562 35.9944C9.88215 35.3149 9.22176 34.5182 8.69961 33.6341C7.95783 32.3857 7.39142 31.043 7.01603 29.6431C5.60369 30.1147 4.26736 30.7852 3.04823 31.6341C2.82311 31.8556 2.554 32.0284 2.25794 32.1416C1.96187 32.2548 1.6453 32.3059 1.32824 32.2917C1.09653 32.2363 0.882245 32.1251 0.704429 31.9679C0.526613 31.8107 0.390774 31.6125 0.308988 31.3909C0.0704485 30.7738 -0.031949 30.1134 0.00867339 29.4539C0.0279325 28.6081 0.162626 27.7686 0.409094 26.9585C0.669512 26.0656 1.05551 25.2134 1.55575 24.427C2.04961 23.6326 2.6884 22.9361 3.43955 22.373C3.75222 22.142 4.0951 21.9541 4.4588 21.8144C4.85012 21.6612 5.27784 21.5081 5.75106 21.3549C5.75106 20.9495 5.68736 20.5261 5.66006 20.0937C5.63276 19.6613 5.58726 19.1928 5.58726 18.7334Z" fill="#B61F25"></path><path d="M50.7889 13.454C52.2645 13.4256 53.731 13.689 55.1025 14.2288C56.2853 14.6963 57.3416 15.4305 58.1876 16.3729C59.0445 17.3242 59.6675 18.4589 60.0077 19.6882C60.3733 21.0968 60.4598 22.5622 60.2625 24.0034C60.1812 25.1042 59.8737 26.177 59.3589 27.156C58.844 28.1351 58.1327 28.9997 57.2684 29.697C55.4192 31.075 53.1474 31.7811 50.8344 31.697C48.4968 31.7979 46.1964 31.0909 44.3276 29.697C43.4633 28.9997 42.752 28.1351 42.2372 27.156C41.7223 26.177 41.4148 25.1042 41.3335 24.0034C41.1389 22.5616 41.2285 21.0962 41.5975 19.6882C41.9108 18.4627 42.5141 17.3285 43.3575 16.3793C44.2009 15.43 45.2602 14.6929 46.448 14.2288C47.8285 13.6871 49.3043 13.4237 50.7889 13.454ZM52.3906 20.9224C52.464 20.3258 52.3222 19.7228 51.9902 19.2197C51.8481 19.0383 51.666 18.8914 51.4578 18.7904C51.2496 18.6893 51.0208 18.6368 50.7889 18.6368C50.557 18.6368 50.3282 18.6893 50.12 18.7904C49.9118 18.8914 49.7297 19.0383 49.5877 19.2197C49.2599 19.7246 49.1185 20.3261 49.1872 20.9224C49.1624 21.2034 49.1938 21.4865 49.2797 21.7555C49.3656 22.0245 49.5043 22.2741 49.6878 22.4899C49.8281 22.6411 49.9981 22.7622 50.1875 22.8459C50.3769 22.9296 50.5816 22.974 50.7889 22.9764C50.9976 22.9741 51.2037 22.9299 51.3946 22.8462C51.5855 22.7626 51.7571 22.6414 51.8992 22.4899C52.263 22.0507 52.4393 21.4883 52.3906 20.9224Z" fill="#B61F25"></path><path d="M98.821 19.5256C99.1952 20.9323 99.3456 22.3882 99.2669 23.8409C99.2078 25.1971 98.8801 26.5286 98.3023 27.7597C97.7585 28.9031 96.9205 29.8849 95.8724 30.6065C94.7244 31.3636 93.3652 31.7449 91.9866 31.6966C90.7467 31.7422 89.5099 31.5463 88.3464 31.12C87.5218 30.8059 86.7963 30.2804 86.2442 29.5975C85.7654 28.9961 85.452 28.2823 85.3341 27.5255C85.2294 26.7572 85.2294 25.9785 85.3341 25.2102C85.4291 24.6885 85.3288 24.1505 85.052 23.6967C84.9555 23.5504 84.8181 23.435 84.6565 23.3646C84.4949 23.2942 84.3161 23.2719 84.142 23.3003C83.9499 23.3558 83.7735 23.4547 83.6267 23.5891C83.4798 23.7236 83.3665 23.8899 83.2956 24.0751C83.0422 24.6856 82.9819 25.3578 83.1227 26.003C83.2429 26.7689 83.3008 27.5432 83.2956 28.3183C83.2971 28.9469 83.1408 29.5661 82.8406 30.1201C82.5351 30.644 82.0654 31.0551 81.5028 31.2912C80.6824 31.6038 79.8056 31.7449 78.9274 31.7056C78.0695 31.7355 77.2162 31.5691 76.4339 31.2191C75.8104 30.9039 75.2875 30.4236 74.9232 29.8318C74.5364 29.2073 74.294 28.5059 74.2133 27.7777C74.1238 26.923 74.1422 26.0605 74.268 25.2102C74.3856 24.6991 74.3179 24.1634 74.0768 23.6967C74.003 23.5541 73.8864 23.4377 73.7429 23.3635C73.5995 23.2893 73.4364 23.2609 73.276 23.2823C72.9575 23.3273 72.6754 23.5796 72.4297 24.0481C72.1489 24.6947 72.0483 25.404 72.1384 26.1021C72.2021 26.9129 72.2477 27.6606 72.2568 28.3363C72.2856 28.9425 72.2243 29.5496 72.0747 30.1381C71.9557 30.5983 71.691 31.0087 71.3194 31.3092C70.852 31.6161 70.2954 31.7618 69.7359 31.7236C68.8112 31.7245 67.8913 31.591 67.0058 31.3272C66.0725 31.0409 65.2356 30.5084 64.5851 29.7867C63.7684 28.8621 63.1493 27.7834 62.765 26.6156C62.1867 24.9042 61.8528 23.1212 61.773 21.3184C61.7133 20.4802 61.7377 19.6383 61.8458 18.8049C61.9455 17.8989 62.1977 17.0158 62.5921 16.1923C63.004 15.372 63.633 14.6776 64.4122 14.1833C65.3849 13.6119 66.5177 13.3655 67.6428 13.4806C68.1696 13.5116 68.6914 13.5992 69.199 13.7419C69.6725 13.8619 70.1136 14.0833 70.4913 14.3905C70.8593 14.6966 71.1518 15.0817 71.3467 15.5166C71.5396 16.0626 71.6019 16.6455 71.5287 17.2193C72.1753 16.2908 72.9825 15.4826 73.913 14.832C74.8317 14.1678 75.8838 13.707 76.9981 13.4806C78.3343 13.2082 79.7246 13.4057 80.9295 14.0392C81.9417 14.5504 82.7241 15.4181 83.1227 16.4716C83.7465 15.724 84.4724 15.066 85.2795 14.5167C86.1234 13.9691 87.0692 13.5938 88.0615 13.4128C89.0539 13.2318 90.0727 13.2487 91.0583 13.4626C91.9561 13.6616 92.7868 14.0867 93.4699 14.6968C94.1276 15.2879 94.6278 16.0306 94.926 16.859C95.2711 17.8168 95.4076 18.8361 95.3264 19.8499C95.2436 20.4658 95.3449 21.0922 95.6176 21.6517C95.696 21.8295 95.8224 21.9825 95.983 22.0938C96.1436 22.2051 96.3321 22.2703 96.5277 22.2823C96.759 22.253 96.9821 22.178 97.1837 22.062C97.3853 21.946 97.5614 21.7911 97.7016 21.6066C98.2083 20.9919 98.5886 20.2849 98.821 19.5256Z" fill="#B61F25"></path><path d="M114.701 16.3186C115.145 16.9796 115.344 17.772 115.265 18.5618C115.201 19.4022 114.919 20.2119 114.446 20.9131C113.878 21.7457 113.094 22.4122 112.177 22.8431C111.26 23.2741 110.243 23.4538 109.232 23.3635C109.764 23.7299 110.404 23.9106 111.052 23.8771C112.338 23.8715 113.59 23.4718 114.637 22.7329C115.778 21.9676 116.624 20.8441 117.04 19.5438C117.467 21.0059 117.581 22.5399 117.377 24.0482C117.292 25.1399 116.984 26.2032 116.473 27.174C115.961 28.1448 115.256 29.003 114.401 29.6968C112.513 30.9985 110.267 31.6964 107.967 31.6964C105.666 31.6964 103.421 30.9985 101.533 29.6968C100.666 29.002 99.9523 28.1379 99.4372 27.1584C98.9221 26.1789 98.6163 25.1048 98.5387 24.0032C98.3404 22.5629 98.4207 21.0985 98.7753 19.6879C99.082 18.4624 99.6777 17.3263 100.513 16.3726C101.37 15.4295 102.435 14.6956 103.626 14.2285C105.007 13.6903 106.482 13.4271 107.967 13.4538C109.35 13.4265 110.725 13.6651 112.016 14.1565C113.12 14.5777 114.06 15.3348 114.701 16.3186ZM111.407 20.1474C111.424 20.0368 111.418 19.9239 111.39 19.8155C111.362 19.7071 111.312 19.6055 111.243 19.5167C111.092 19.3408 110.893 19.2124 110.67 19.1474C110.436 19.066 110.185 19.0474 109.942 19.0933C109.679 19.1489 109.434 19.2698 109.232 19.4447C108.974 19.6149 108.777 19.8606 108.667 20.1474C108.535 20.4781 108.44 20.8226 108.385 21.1744C109.044 21.3215 109.728 21.3215 110.387 21.1744C110.653 21.1439 110.9 21.0231 111.086 20.8325C111.272 20.642 111.385 20.3934 111.407 20.1294V20.1474Z" fill="#B61F25"></path><path d="M129.271 23.859C130.574 23.8552 131.845 23.4559 132.911 22.7149C134.06 21.9536 134.913 20.8293 135.332 19.5258C135.53 20.2171 135.658 20.9263 135.714 21.6428C135.791 22.4278 135.791 23.2182 135.714 24.0032C135.618 25.1129 135.293 26.1912 134.757 27.1708C134.222 28.1504 133.488 29.0103 132.602 29.6968C130.714 30.9985 128.469 31.6964 126.168 31.6964C123.867 31.6964 121.622 30.9985 119.734 29.6968C118.87 28.9995 118.158 28.1348 117.643 27.1558C117.129 26.1768 116.821 25.104 116.74 24.0032C116.542 22.5629 116.622 21.0985 116.976 19.6879C117.286 18.4617 117.885 17.3256 118.724 16.3726C119.575 15.4279 120.638 14.6936 121.827 14.2285C123.209 13.6912 124.684 13.428 126.168 13.4538C127.551 13.4265 128.926 13.6651 130.218 14.1565C131.333 14.5692 132.288 15.3194 132.948 16.3006C133.217 16.7445 133.422 17.2236 133.557 17.724C133.683 18.1877 133.714 18.6717 133.648 19.1474C133.595 19.5912 133.453 20.02 133.23 20.4086C133.014 20.7847 132.7 21.096 132.32 21.3095C132.071 21.5172 131.769 21.6518 131.448 21.698C131.126 21.7441 130.797 21.7001 130.5 21.5708C130.265 21.4356 130.071 21.2406 129.938 21.0062C129.805 20.7717 129.738 20.5062 129.744 20.2375C129.745 20 129.664 19.7693 129.515 19.5829C129.367 19.3965 129.159 19.2653 128.925 19.2104C128.704 19.1385 128.469 19.1143 128.237 19.1394C128.005 19.1646 127.781 19.2384 127.58 19.3562C127.38 19.4739 127.207 19.6327 127.073 19.822C126.939 20.0112 126.848 20.2266 126.805 20.4537C126.662 20.9365 126.637 21.4459 126.732 21.9401C126.827 22.457 127.082 22.9321 127.46 23.3005C127.965 23.7164 128.617 23.9173 129.271 23.859Z" fill="#B61F25"></path><path d="M135.16 17.7064C134.993 15.2479 135.032 12.78 135.278 10.3281C135.421 8.71691 135.875 7.14789 136.616 5.70652C137.216 4.61721 138.182 3.76962 139.346 3.31016C140.699 2.82537 142.131 2.59618 143.569 2.63449C145.453 2.63449 146.79 3.02187 147.573 3.79664C148.378 4.624 148.825 5.72922 148.82 6.87768C148.839 8.34528 148.601 9.8051 148.119 11.1929C147.603 12.7965 146.997 14.4061 146.299 16.0217C146.913 15.4081 147.604 14.8752 148.356 14.4361C149.087 13.9978 149.891 13.6927 150.731 13.5353C151.734 13.3311 152.768 13.3311 153.77 13.5353C154.638 13.7144 155.445 14.1106 156.114 14.6863C156.783 15.262 157.292 15.9978 157.593 16.8235C157.934 17.7729 158.07 18.7826 157.993 19.7874C157.906 20.3998 157.994 21.0242 158.248 21.5892C158.324 21.7683 158.45 21.9224 158.611 22.0339C158.772 22.1454 158.962 22.2099 159.158 22.2198C159.394 22.195 159.623 22.1222 159.83 22.0059C160.036 21.8897 160.217 21.7325 160.359 21.5442C160.883 20.9217 161.276 20.2019 161.515 19.4271C161.894 20.833 162.044 22.2896 161.961 23.7423C161.906 25.0992 161.578 26.4315 160.996 27.6612C160.452 28.8046 159.614 29.7864 158.566 30.508C157.418 31.2651 156.059 31.6464 154.68 31.5981C153.441 31.643 152.204 31.4471 151.04 31.0215C150.226 30.7024 149.511 30.1775 148.965 29.499C148.495 28.8926 148.183 28.181 148.055 27.427C147.941 26.6593 147.941 25.8793 148.055 25.1117C148.142 24.6039 148.059 24.0819 147.819 23.6252C147.753 23.4826 147.646 23.3621 147.512 23.2789C147.378 23.1956 147.222 23.1532 147.063 23.1568C146.891 23.1964 146.73 23.2736 146.591 23.3827C146.453 23.4918 146.34 23.63 146.263 23.7874C145.967 24.3407 145.835 24.965 145.88 25.5892C145.872 25.661 145.872 25.7335 145.88 25.8054C145.888 25.8742 145.888 25.9437 145.88 26.0126C145.935 26.8234 145.98 27.5711 145.999 28.2468C146.02 28.8533 145.956 29.4598 145.808 30.0486C145.692 30.5103 145.427 30.9218 145.052 31.2197C144.585 31.5266 144.028 31.6723 143.469 31.6341C142.515 31.6318 141.569 31.4766 140.666 31.1747C139.649 30.7919 138.772 30.1175 138.145 29.2378C137.267 27.9726 136.623 26.5634 136.243 25.0757C135.606 22.6667 135.243 20.195 135.16 17.7064Z" fill="#B61F25"></path><path d="M170.605 13.4541C172.081 13.4274 173.547 13.6907 174.919 14.2288C176.107 14.693 177.166 15.4301 178.01 16.3793C178.853 17.3286 179.456 18.4627 179.77 19.6882C180.138 21.0962 180.228 22.5617 180.033 24.0035C179.952 25.1043 179.645 26.1771 179.13 27.1561C178.615 28.1351 177.904 28.9998 177.039 29.6971C175.152 30.9988 172.906 31.6967 170.605 31.6967C168.305 31.6967 166.059 30.9988 164.171 29.6971C163.304 29.0023 162.591 28.1383 162.076 27.1587C161.561 26.1792 161.255 25.1051 161.177 24.0035C160.98 22.5623 161.066 21.0969 161.432 19.6882C161.759 18.463 162.366 17.3287 163.207 16.373C164.048 15.4328 165.097 14.6988 166.274 14.2288C167.651 13.6867 169.124 13.4233 170.605 13.4541ZM172.207 20.9225C172.276 20.3262 172.134 19.7247 171.807 19.2198C171.665 19.0383 171.483 18.8915 171.274 18.7904C171.066 18.6894 170.837 18.6369 170.605 18.6369C170.374 18.6369 170.145 18.6894 169.936 18.7904C169.728 18.8915 169.546 19.0383 169.404 19.2198C169.072 19.7229 168.93 20.3259 169.004 20.9225C168.955 21.4884 169.131 22.0508 169.495 22.49C169.637 22.6414 169.809 22.7627 170 22.8463C170.191 22.9299 170.397 22.9742 170.605 22.9765C170.813 22.9741 171.017 22.9296 171.207 22.846C171.396 22.7623 171.566 22.6412 171.707 22.49C171.89 22.2742 172.029 22.0246 172.115 21.7556C172.201 21.4866 172.232 21.2035 172.207 20.9225Z" fill="#B61F25"></path><path d="M210.239 13.5537C210.987 13.5956 211.719 13.792 212.386 14.1303C213.012 14.4701 213.527 14.9795 213.87 15.5988C214.282 16.3635 214.515 17.2102 214.552 18.0762C214.618 19.2832 214.533 20.4937 214.298 21.6798C214.055 23.1891 213.537 24.6421 212.769 25.968C212.075 27.159 211.172 28.2177 210.102 29.0941C209.061 29.943 207.87 30.5936 206.589 31.013C205.26 31.4499 203.868 31.6689 202.467 31.6616C201.111 31.7093 199.774 31.3343 198.645 30.5896C197.628 29.9014 196.803 28.9723 196.242 27.8869C195.571 28.9722 194.663 29.8955 193.585 30.5896C192.453 31.303 191.132 31.6668 189.79 31.6346C188.481 31.6656 187.184 31.3779 186.013 30.7968C184.961 30.2471 184.056 29.4564 183.374 28.4905C182.655 27.4429 182.145 26.2686 181.873 25.0311C181.549 23.6342 181.405 22.2024 181.445 20.7699C181.512 18.1212 182.094 16.1903 183.192 14.9771C184.284 13.7699 186.068 13.2745 188.516 13.4907C189.193 13.5215 189.86 13.6615 190.491 13.9051C190.971 14.0972 191.359 14.4649 191.574 14.9321C191.814 15.5013 191.914 16.1189 191.865 16.7339C191.803 17.6781 191.66 18.6154 191.437 19.5356C191.255 20.2481 191.255 20.9944 191.437 21.7068C191.61 22.2473 191.856 22.5536 192.174 22.6077C192.493 22.6617 192.802 22.4635 193.084 21.9951C193.476 21.2636 193.67 20.4444 193.649 19.6167C193.812 17.3825 194.277 15.7969 195.041 14.887C195.504 14.4016 196.072 14.0257 196.702 13.7871C197.333 13.5485 198.009 13.4533 198.681 13.5087C200.31 13.5087 201.411 13.9501 201.839 14.833C202.267 15.7159 202.294 17.2834 201.784 19.5266C201.606 20.2395 201.606 20.9849 201.784 21.6978C201.957 22.2383 202.203 22.5446 202.512 22.5987C202.822 22.6527 203.14 22.4545 203.423 21.9861C203.806 21.2514 203.999 20.4344 203.987 19.6077C204.141 17.3735 204.706 15.7429 205.679 14.7339C206.653 13.7249 208.2 13.3916 210.239 13.5537Z" fill="#B61F25"></path><path d="M54.1653 43.7422C53.3578 44.1629 52.4567 44.3766 51.5443 44.3638C51.1081 44.3638 50.6762 44.2787 50.2732 44.1135C49.8702 43.9482 49.504 43.706 49.1956 43.4007C48.8871 43.0953 48.6424 42.7328 48.4755 42.3339C48.3086 41.9349 48.2227 41.5073 48.2227 41.0755C48.2227 40.6437 48.3086 40.2161 48.4755 39.8172C48.6424 39.4182 48.8871 39.0557 49.1956 38.7504C49.504 38.445 49.8702 38.2028 50.2732 38.0376C50.6762 37.8723 51.1081 37.7873 51.5443 37.7873C52.4449 37.7336 53.3335 38.0129 54.0378 38.571L53.2097 39.3999C52.7486 39.0134 52.1569 38.8139 51.5534 38.8413C51.2601 38.8372 50.969 38.8928 50.6982 39.0048C50.4275 39.1168 50.183 39.2827 49.9798 39.4923C49.7767 39.7019 49.6192 39.9506 49.5173 40.2229C49.4155 40.4953 49.3713 40.7855 49.3875 41.0755C49.3701 41.3675 49.4133 41.66 49.5143 41.9348C49.6154 42.2097 49.7722 42.4612 49.975 42.6738C50.1779 42.8865 50.4226 43.0558 50.694 43.1714C50.9655 43.2869 51.258 43.3463 51.5534 43.3458C52.0675 43.3617 52.5774 43.2503 53.0368 43.0214V41.544H51.7445V40.544H54.1653V43.7422Z" fill="#B61F25"></path><path d="M57.5047 39.8499C57.9477 39.864 58.3767 40.007 58.7381 40.261C59.0996 40.5149 59.3775 40.8686 59.5372 41.2779C59.6969 41.6872 59.7314 42.1339 59.6362 42.5625C59.5411 42.991 59.3206 43.3823 59.0023 43.6876C58.6839 43.9929 58.2818 44.1987 57.8461 44.2792C57.4104 44.3597 56.9604 44.3115 56.5523 44.1404C56.1441 43.9694 55.7958 43.6832 55.5509 43.3175C55.306 42.9518 55.1752 42.5229 55.175 42.0841C55.171 41.7834 55.229 41.4852 55.3456 41.2075C55.4622 40.9299 55.6349 40.6788 55.8531 40.4695C56.0712 40.2603 56.3302 40.0975 56.6143 39.9909C56.8983 39.8844 57.2013 39.8364 57.5047 39.8499ZM57.5047 43.3543C57.7621 43.3615 58.0158 43.2924 58.2333 43.1559C58.4507 43.0193 58.622 42.8216 58.7251 42.588C58.8283 42.3545 58.8586 42.0957 58.8122 41.845C58.7658 41.5943 58.6447 41.363 58.4646 41.1808C58.2845 40.9986 58.0535 40.8739 57.8013 40.8225C57.5491 40.7712 57.2871 40.7956 57.049 40.8927C56.8109 40.9898 56.6075 41.155 56.465 41.3673C56.3224 41.5796 56.2471 41.8292 56.2489 42.0841C56.2452 42.2492 56.275 42.4133 56.3366 42.5668C56.3982 42.7203 56.4903 42.86 56.6074 42.9776C56.7245 43.0952 56.8643 43.1883 57.0184 43.2515C57.1725 43.3147 57.3379 43.3466 57.5047 43.3453V43.3543Z" fill="#B61F25"></path><path d="M62.9569 39.8499C63.3999 39.864 63.8288 40.007 64.1903 40.261C64.5517 40.5149 64.8296 40.8686 64.9894 41.2779C65.1491 41.6872 65.1835 42.1339 65.0884 42.5625C64.9932 42.991 64.7727 43.3823 64.4544 43.6876C64.1361 43.9929 63.734 44.1987 63.2983 44.2792C62.8626 44.3597 62.4126 44.3115 62.0044 44.1404C61.5962 43.9694 61.248 43.6832 61.003 43.3175C60.7581 42.9518 60.6274 42.5229 60.6271 42.0841C60.6231 41.7834 60.6812 41.4852 60.7978 41.2075C60.9144 40.9299 61.0871 40.6788 61.3052 40.4695C61.5234 40.2603 61.7824 40.0975 62.0664 39.9909C62.3504 39.8844 62.6534 39.8364 62.9569 39.8499ZM62.9569 43.3543C63.2139 43.3597 63.4668 43.2891 63.683 43.1514C63.8993 43.0137 64.0692 42.8153 64.1709 42.5816C64.2727 42.3478 64.3017 42.0893 64.2542 41.8392C64.2067 41.589 64.0849 41.3585 63.9044 41.1773C63.7239 40.996 63.4929 40.8722 63.2409 40.8216C62.9889 40.771 62.7274 40.796 62.4898 40.8934C62.2522 40.9908 62.0494 41.1561 61.9073 41.3682C61.7651 41.5803 61.6901 41.8296 61.6919 42.0841C61.6869 42.2503 61.7162 42.4158 61.7778 42.5704C61.8395 42.7251 61.9324 42.8657 62.0507 42.9837C62.1691 43.1017 62.3104 43.1946 62.4662 43.2568C62.622 43.3189 62.7889 43.3491 62.9569 43.3453V43.3543Z" fill="#B61F25"></path><path d="M69.6811 43.5706C69.5215 43.81 69.3015 44.0042 69.043 44.1337C68.7844 44.2633 68.4962 44.3238 68.2068 44.3093C67.9153 44.3166 67.6256 44.2631 67.3564 44.1522C67.0873 44.0412 66.8447 43.8754 66.6447 43.6654C66.4446 43.4555 66.2915 43.2061 66.1953 42.9337C66.0991 42.6612 66.062 42.3717 66.0864 42.0841C66.0652 41.8005 66.103 41.5156 66.1974 41.247C66.2918 40.9784 66.4409 40.7318 66.6353 40.5224C66.8297 40.313 67.0655 40.1453 67.3279 40.0297C67.5904 39.914 67.874 39.8528 68.1613 39.8499C68.4378 39.8414 68.7127 39.8953 68.965 40.0077C69.2173 40.1201 69.4404 40.288 69.6174 40.4985V37.5166H70.7185V44.2462H69.6811V43.5706ZM68.3979 43.3454C68.6553 43.3525 68.909 43.2834 69.1264 43.1469C69.3439 43.0103 69.5152 42.8126 69.6183 42.579C69.7215 42.3455 69.7518 42.0867 69.7054 41.836C69.6589 41.5853 69.5379 41.354 69.3578 41.1718C69.1777 40.9896 68.9467 40.8649 68.6945 40.8135C68.4423 40.7622 68.1803 40.7866 67.9422 40.8837C67.7041 40.9808 67.5007 41.146 67.3581 41.3583C67.2156 41.5706 67.1403 41.8202 67.142 42.0751C67.1371 42.2409 67.1661 42.4061 67.2271 42.5606C67.2881 42.7151 67.38 42.8559 67.4972 42.9745C67.6145 43.093 67.7546 43.187 67.9094 43.2507C68.0641 43.3145 68.2303 43.3466 68.3979 43.3454Z" fill="#B61F25"></path><path d="M74.9325 40.8589H74.0225V39.958H74.9325V39.3634C74.9325 38.1832 75.2055 37.4175 76.5342 37.4175C76.7598 37.4172 76.985 37.4353 77.2076 37.4715L77.1439 38.3724C76.9982 38.3344 76.8486 38.3132 76.698 38.3094C76.0974 38.3094 76.0064 38.7148 76.0064 39.2103V39.976H76.9983V40.8769H76.0064V44.2462H74.9325V40.8589Z" fill="#B61F25"></path><path d="M79.8201 39.8499C80.2631 39.864 80.6921 40.007 81.0536 40.261C81.415 40.5149 81.6929 40.8686 81.8526 41.2779C82.0124 41.6872 82.0468 42.1339 81.9517 42.5625C81.8565 42.991 81.636 43.3823 81.3177 43.6876C80.9993 43.9929 80.5972 44.1987 80.1616 44.2792C79.7259 44.3597 79.2758 44.3115 78.8677 44.1404C78.4595 43.9694 78.1112 43.6832 77.8663 43.3175C77.6214 42.9518 77.4907 42.5229 77.4904 42.0841C77.4864 41.7834 77.5445 41.4852 77.6611 41.2075C77.7777 40.9299 77.9503 40.6788 78.1685 40.4695C78.3866 40.2603 78.6457 40.0975 78.9297 39.9909C79.2137 39.8844 79.5167 39.8364 79.8201 39.8499ZM79.8201 43.3453C80.0772 43.3507 80.3301 43.28 80.5463 43.1424C80.7626 43.0047 80.9325 42.8063 81.0342 42.5726C81.136 42.3388 81.1649 42.0803 81.1175 41.8301C81.07 41.58 80.9482 41.3495 80.7677 41.1683C80.5872 40.987 80.3561 40.8632 80.1042 40.8126C79.8522 40.762 79.5906 40.787 79.3531 40.8844C79.1155 40.9818 78.9127 41.1471 78.7706 41.3592C78.6284 41.5713 78.5534 41.8206 78.5552 42.0751C78.5489 42.242 78.5772 42.4085 78.6384 42.5642C78.6995 42.7199 78.7921 42.8616 78.9106 42.9806C79.0291 43.0996 79.1709 43.1933 79.3273 43.256C79.4837 43.3187 79.6514 43.3491 79.8201 43.3453Z" fill="#B61F25"></path><path d="M85.2791 39.8499C85.7221 39.864 86.1511 40.007 86.5126 40.261C86.874 40.5149 87.1519 40.8686 87.3116 41.2779C87.4713 41.6872 87.5058 42.1339 87.4106 42.5625C87.3155 42.991 87.095 43.3823 86.7767 43.6876C86.4583 43.9929 86.0562 44.1987 85.6205 44.2792C85.1848 44.3597 84.7348 44.3115 84.3267 44.1404C83.9185 43.9694 83.5702 43.6832 83.3253 43.3175C83.0804 42.9518 82.9496 42.5229 82.9494 42.0841C82.9454 41.7834 83.0035 41.4852 83.1201 41.2075C83.2367 40.9299 83.4093 40.6788 83.6275 40.4695C83.8456 40.2603 84.1047 40.0975 84.3887 39.9909C84.6727 39.8844 84.9757 39.8364 85.2791 39.8499ZM85.2791 43.3453C85.5365 43.3525 85.7902 43.2834 86.0077 43.1469C86.2251 43.0103 86.3964 42.8126 86.4996 42.579C86.6027 42.3455 86.633 42.0867 86.5866 41.836C86.5402 41.5853 86.4192 41.354 86.239 41.1718C86.0589 40.9896 85.8279 40.8649 85.5757 40.8135C85.3235 40.7622 85.0615 40.7866 84.8234 40.8837C84.5853 40.9808 84.3819 41.146 84.2394 41.3583C84.0968 41.5706 84.0216 41.8202 84.0233 42.0751C84.0184 42.2409 84.0473 42.4061 84.1083 42.5606C84.1694 42.7151 84.2612 42.8559 84.3785 42.9744C84.4957 43.093 84.6359 43.187 84.7906 43.2507C84.9454 43.3144 85.1115 43.3466 85.2791 43.3453Z" fill="#B61F25"></path><path d="M91.9771 43.5711C91.8196 43.8125 91.6 44.0081 91.341 44.1379C91.0819 44.2677 90.7927 44.3271 90.5029 44.3098C90.2118 44.3157 89.9227 44.2612 89.6542 44.1498C89.3857 44.0384 89.1438 43.8725 88.944 43.6628C88.7443 43.4532 88.5911 43.2044 88.4944 42.9326C88.3976 42.6608 88.3595 42.3719 88.3825 42.0846C88.3626 41.8013 88.4014 41.5169 88.4963 41.2489C88.5912 40.9808 88.7403 40.7348 88.9344 40.5257C89.1286 40.3166 89.3638 40.1489 89.6256 40.0328C89.8875 39.9167 90.1705 39.8546 90.4574 39.8504C90.7346 39.8369 91.0111 39.8887 91.2642 40.0015C91.5173 40.1142 91.7398 40.2847 91.9134 40.499V37.5171H92.9873V44.2467H91.968L91.9771 43.5711ZM90.7395 43.3458C90.9965 43.3512 91.2494 43.2806 91.4657 43.1429C91.6819 43.0052 91.8518 42.8068 91.9535 42.5731C92.0553 42.3393 92.0843 42.0808 92.0368 41.8307C91.9893 41.5805 91.8675 41.35 91.687 41.1688C91.5065 40.9875 91.2755 40.8637 91.0235 40.8131C90.7715 40.7625 90.51 40.7875 90.2724 40.8849C90.0348 40.9823 89.832 41.1476 89.6899 41.3597C89.5477 41.5718 89.4728 41.8211 89.4745 42.0756C89.4683 42.2425 89.4966 42.409 89.5577 42.5647C89.6188 42.7204 89.7115 42.8621 89.8299 42.9811C89.9484 43.1001 90.0902 43.1938 90.2466 43.2565C90.403 43.3192 90.5708 43.3496 90.7395 43.3458Z" fill="#B61F25"></path><path d="M97.3932 37.886C97.5201 37.8913 97.6426 37.9335 97.7454 38.0074C97.8481 38.0812 97.9266 38.1834 97.9711 38.3011C98.0156 38.4189 98.024 38.547 97.9953 38.6695C97.9666 38.792 97.9021 38.9033 97.8099 38.9897C97.7176 39.0761 97.6017 39.1337 97.4766 39.1552C97.3515 39.1768 97.2227 39.1613 97.1064 39.1109C96.9901 39.0604 96.8914 38.9771 96.8227 38.8714C96.7539 38.7657 96.7181 38.6423 96.7198 38.5166C96.7221 38.4314 96.7414 38.3475 96.7766 38.2697C96.8117 38.1919 96.862 38.1217 96.9245 38.0632C96.987 38.0046 97.0606 37.9588 97.141 37.9284C97.2215 37.898 97.3072 37.8836 97.3932 37.886ZM96.8654 39.958H97.9392V44.2463H96.8654V39.958Z" fill="#B61F25"></path><path d="M101.461 41.1381C101.37 40.9997 101.244 40.8871 101.095 40.8113C100.947 40.7355 100.781 40.6991 100.614 40.7057C100.332 40.7057 99.9956 40.8408 99.9956 41.1561C99.9956 41.9129 102.307 41.2913 102.307 42.9579C102.307 43.9669 101.333 44.3183 100.487 44.3183C100.176 44.3403 99.8638 44.2926 99.5739 44.1787C99.284 44.0649 99.0237 43.8878 98.8125 43.6606L99.5314 43.003C99.6506 43.1604 99.8042 43.2892 99.9807 43.3797C100.157 43.4702 100.352 43.52 100.551 43.5255C100.86 43.5255 101.261 43.3723 101.261 43.039C101.261 42.1381 98.949 42.8498 98.949 41.2372C98.949 40.2913 99.8045 39.8589 100.669 39.8589C100.958 39.8389 101.247 39.8874 101.513 40.0002C101.779 40.113 102.013 40.2869 102.198 40.5075L101.461 41.1381Z" fill="#B61F25"></path><path d="M105.729 39.958H106.748V40.6427C106.866 40.3983 107.054 40.194 107.289 40.056C107.524 39.918 107.795 39.8525 108.068 39.8679C108.347 39.8422 108.627 39.9052 108.868 40.0478C109.108 40.1903 109.297 40.405 109.406 40.6607C109.539 40.408 109.743 40.1987 109.993 40.058C110.243 39.9174 110.529 39.8514 110.816 39.8679C111.963 39.8679 112.363 40.6787 112.363 41.6697V44.2462H111.308V41.7958C111.308 41.2733 111.144 40.8048 110.516 40.8048C109.888 40.8048 109.606 41.3544 109.606 41.9039V44.2462H108.541V41.7237C108.541 41.2012 108.323 40.8228 107.804 40.8228C107.664 40.819 107.526 40.8453 107.397 40.8998C107.269 40.9543 107.154 41.0358 107.06 41.1386C106.967 41.2414 106.897 41.3631 106.856 41.4952C106.815 41.6274 106.803 41.7668 106.821 41.9039V44.2462H105.747L105.729 39.958Z" fill="#B61F25"></path><path d="M114.402 42.4444C114.426 42.728 114.559 42.9916 114.775 43.1798C114.99 43.3679 115.271 43.466 115.558 43.4534C115.782 43.4572 116.004 43.4066 116.204 43.3062C116.404 43.2057 116.576 43.0583 116.705 42.8769L117.478 43.4534C117.247 43.769 116.937 44.0203 116.579 44.183C116.221 44.3457 115.827 44.4144 115.434 44.3824C115.042 44.3505 114.664 44.2189 114.338 44.0004C114.011 43.7819 113.747 43.4839 113.571 43.1351C113.395 42.7863 113.313 42.3985 113.332 42.0089C113.351 41.6194 113.471 41.2414 113.681 40.9113C113.891 40.5811 114.183 40.3101 114.529 40.1241C114.876 39.9382 115.264 39.8438 115.658 39.8499C116.86 39.8499 117.669 40.6877 117.669 42.1652V42.4444H114.402ZM116.596 41.6517C116.602 41.5121 116.577 41.3729 116.524 41.2436C116.471 41.1142 116.39 40.9977 116.287 40.902C116.185 40.8062 116.062 40.7335 115.928 40.6888C115.795 40.644 115.653 40.6283 115.513 40.6427C115.372 40.6366 115.232 40.6583 115.1 40.7063C114.967 40.7543 114.846 40.8278 114.743 40.9224C114.64 41.0171 114.557 41.1311 114.498 41.2578C114.44 41.3845 114.407 41.5214 114.402 41.6607L116.596 41.6517Z" fill="#B61F25"></path><path d="M121.346 43.6247C121.198 43.8489 120.993 44.0304 120.752 44.1506C120.511 44.2709 120.241 44.3257 119.972 44.3094C119.784 44.3319 119.593 44.3165 119.412 44.2641C119.23 44.2118 119.061 44.1237 118.915 44.005C118.769 43.8863 118.648 43.7396 118.561 43.5736C118.473 43.4076 118.421 43.2258 118.406 43.0392C118.406 41.6608 120.035 41.5617 121.136 41.5617H121.4V41.4446C121.4 40.9221 120.991 40.6518 120.417 40.6518C119.995 40.6482 119.587 40.8064 119.28 41.0932L118.716 40.5347C118.958 40.3068 119.244 40.1289 119.556 40.0114C119.869 39.8938 120.202 39.839 120.536 39.85C122.356 39.85 122.356 41.1653 122.356 41.7689V44.2464H121.391L121.346 43.6247ZM121.282 42.3004H121.064C120.472 42.3004 119.453 42.3004 119.453 42.9581C119.453 43.3455 119.853 43.5166 120.208 43.5166C120.936 43.5166 121.282 43.1383 121.282 42.5437V42.3004Z" fill="#B61F25"></path><path d="M123.502 39.9584H124.521V40.6431C124.631 40.3937 124.816 40.1838 125.05 40.042C125.285 39.9001 125.557 39.8332 125.832 39.8503C126.052 39.8415 126.271 39.8807 126.474 39.9651C126.676 40.0495 126.858 40.177 127.006 40.3386C127.153 40.5001 127.263 40.6919 127.328 40.9002C127.392 41.1085 127.41 41.3282 127.379 41.5439V44.2466H126.305V42.0574C126.305 41.589 126.305 40.8052 125.513 40.8052C125.373 40.8014 125.235 40.8276 125.106 40.8822C124.978 40.9367 124.863 41.0182 124.769 41.121C124.676 41.2238 124.606 41.3455 124.565 41.4776C124.524 41.6097 124.512 41.7492 124.53 41.8863V44.2466H123.502V39.9584Z" fill="#B61F25"></path><path d="M128.053 40.859V39.9581H128.963V38.7329H130.037V39.9581H131.211V40.859H130.037V42.7148C130.037 43.1473 130.155 43.4085 130.628 43.4085C130.831 43.4185 131.033 43.3717 131.211 43.2734V44.1743C130.941 44.2773 130.653 44.3263 130.364 44.3184C129.227 44.3184 128.963 43.8139 128.963 42.8139V40.859H128.053Z" fill="#B61F25"></path><path d="M134.204 40.859V39.9581H135.114V38.7329H136.188V39.9581H137.362V40.859H136.188V42.7148C136.188 43.1473 136.306 43.4085 136.78 43.4085C136.983 43.4185 137.184 43.3717 137.362 43.2734V44.1743C137.092 44.2773 136.805 44.3263 136.516 44.3184C135.378 44.3184 135.114 43.8139 135.114 42.8139V40.859H134.204Z" fill="#B61F25"></path><path d="M140.291 39.8504C140.734 39.8645 141.163 40.0075 141.525 40.2614C141.886 40.5154 142.164 40.8691 142.324 41.2783C142.483 41.6876 142.518 42.1344 142.423 42.563C142.327 42.9915 142.107 43.3828 141.789 43.6881C141.47 43.9934 141.068 44.1991 140.632 44.2797C140.197 44.3602 139.747 44.3119 139.339 44.1409C138.93 43.9699 138.582 43.6837 138.337 43.318C138.092 42.9523 137.962 42.5233 137.961 42.0846C137.957 41.7839 138.015 41.4856 138.132 41.208C138.249 40.9304 138.421 40.6792 138.639 40.47C138.858 40.2608 139.117 40.098 139.401 39.9914C139.685 39.8848 139.988 39.8369 140.291 39.8504ZM140.291 43.3548C140.548 43.3602 140.801 43.2895 141.017 43.1519C141.234 43.0142 141.403 42.8158 141.505 42.5821C141.607 42.3483 141.636 42.0898 141.588 41.8396C141.541 41.5895 141.419 41.359 141.239 41.1778C141.058 40.9965 140.827 40.8727 140.575 40.8221C140.323 40.7715 140.062 40.7965 139.824 40.8939C139.586 40.9913 139.384 41.1566 139.242 41.3687C139.099 41.5808 139.024 41.8301 139.026 42.0846C139.021 42.2508 139.05 42.4163 139.112 42.5709C139.174 42.7256 139.267 42.8662 139.385 42.9842C139.503 43.1022 139.645 43.1951 139.8 43.2573C139.956 43.3194 140.123 43.3496 140.291 43.3458V43.3548Z" fill="#B61F25"></path><path d="M146.254 37.5171H147.328V40.499C147.501 40.2847 147.724 40.1142 147.977 40.0015C148.23 39.8887 148.507 39.8369 148.784 39.8504C149.07 39.8545 149.353 39.9166 149.614 40.0328C149.876 40.149 150.11 40.3169 150.304 40.5261C150.497 40.7354 150.646 40.9815 150.739 41.2495C150.833 41.5176 150.871 41.8017 150.85 42.0846C150.874 42.3714 150.837 42.6601 150.741 42.932C150.646 43.2038 150.493 43.4527 150.294 43.6625C150.095 43.8723 149.854 44.0383 149.586 44.1498C149.318 44.2614 149.029 44.3159 148.738 44.3098C148.449 44.3271 148.159 44.2677 147.9 44.1379C147.641 44.0081 147.422 43.8125 147.264 43.5711V44.2467H146.254V37.5171ZM148.547 40.8053C148.291 40.8 148.038 40.8704 147.822 41.0077C147.606 41.1449 147.436 41.3428 147.334 41.576C147.232 41.8093 147.203 42.0673 147.249 42.3172C147.296 42.5671 147.417 42.7976 147.596 42.9792C147.776 43.1608 148.006 43.2854 148.258 43.3369C148.509 43.3885 148.77 43.3648 149.008 43.2689C149.246 43.1729 149.449 43.009 149.592 42.798C149.736 42.5871 149.812 42.3388 149.812 42.0846C149.818 41.918 149.79 41.7519 149.73 41.5963C149.669 41.4407 149.578 41.2989 149.46 41.1793C149.343 41.0598 149.202 40.965 149.047 40.9007C148.892 40.8365 148.725 40.804 148.556 40.8053H148.547Z" fill="#B61F25"></path><path d="M152.741 42.4444C152.765 42.728 152.898 42.9916 153.114 43.1798C153.329 43.3679 153.61 43.466 153.897 43.4534C154.122 43.4556 154.345 43.4044 154.546 43.3041C154.747 43.2038 154.921 43.0573 155.053 42.8769L155.817 43.4534C155.586 43.769 155.276 44.0203 154.918 44.183C154.56 44.3457 154.166 44.4144 153.773 44.3824C153.381 44.3505 153.003 44.2189 152.677 44.0004C152.35 43.7819 152.086 43.4839 151.91 43.1351C151.734 42.7863 151.651 42.3985 151.671 42.0089C151.69 41.6194 151.81 41.2414 152.02 40.9113C152.23 40.5811 152.522 40.3101 152.868 40.1241C153.214 39.9382 153.603 39.8438 153.997 39.8499C155.189 39.8499 155.999 40.6877 155.999 42.1652V42.4444H152.741ZM154.944 41.6517C154.95 41.5113 154.925 41.3712 154.871 41.2412C154.818 41.1111 154.736 40.9941 154.632 40.8982C154.528 40.8023 154.405 40.7298 154.27 40.6857C154.135 40.6416 153.993 40.6269 153.852 40.6427C153.712 40.6366 153.572 40.6579 153.44 40.7054C153.309 40.7529 153.188 40.8255 153.085 40.9192C152.982 41.013 152.898 41.1259 152.839 41.2516C152.78 41.3772 152.747 41.5132 152.741 41.6517H154.944Z" fill="#B61F25"></path><path d="M161.942 41.1381C161.852 41.0011 161.727 40.8893 161.581 40.8136C161.434 40.7378 161.27 40.7007 161.105 40.7057C160.814 40.7057 160.477 40.8408 160.477 41.1561C160.477 41.9129 162.789 41.2913 162.789 42.9579C162.789 43.9669 161.815 44.3183 160.968 44.3183C160.657 44.3403 160.345 44.2926 160.055 44.1787C159.765 44.0649 159.505 43.8878 159.294 43.6606L160.013 43.003C160.132 43.1604 160.286 43.2892 160.462 43.3797C160.639 43.4702 160.833 43.52 161.032 43.5255C161.342 43.5255 161.742 43.3723 161.742 43.039C161.742 42.1381 159.43 42.8498 159.43 41.2372C159.43 40.2913 160.286 39.8589 161.15 39.8589C161.439 39.8389 161.728 39.8874 161.994 40.0002C162.26 40.113 162.495 40.2869 162.679 40.5075L161.942 41.1381Z" fill="#B61F25"></path><path d="M164.691 40.5531C164.811 40.3294 164.993 40.1443 165.215 40.0198C165.438 39.8953 165.692 39.8365 165.947 39.8504C166.17 39.8361 166.393 39.8712 166.6 39.9532C166.808 40.0351 166.994 40.1618 167.146 40.3241C167.298 40.4863 167.411 40.68 167.477 40.8911C167.544 41.1021 167.562 41.3252 167.53 41.5441V44.2467H166.457V42.0576C166.457 41.5891 166.457 40.8053 165.674 40.8053C165.534 40.8015 165.395 40.8278 165.267 40.8823C165.139 40.9368 165.024 41.0183 164.93 41.1211C164.837 41.2239 164.767 41.3456 164.726 41.4777C164.684 41.6099 164.673 41.7493 164.691 41.8864V44.2467H163.617V37.5171H164.691V40.5531Z" fill="#B61F25"></path><path d="M171.425 43.6247C171.275 43.8483 171.068 44.0291 170.825 44.1492C170.583 44.2693 170.312 44.3246 170.042 44.3094C169.854 44.3319 169.664 44.3164 169.483 44.264C169.302 44.2116 169.134 44.1233 168.988 44.0045C168.843 43.8857 168.723 43.7389 168.637 43.573C168.55 43.407 168.499 43.2254 168.485 43.0392C168.485 41.6608 170.105 41.5617 171.215 41.5617H171.489V41.4446C171.489 40.9221 171.07 40.6518 170.506 40.6518C170.081 40.6487 169.67 40.8066 169.359 41.0932L168.795 40.5347C169.037 40.3068 169.323 40.1289 169.635 40.0114C169.948 39.8938 170.281 39.839 170.615 39.85C172.435 39.85 172.435 41.1653 172.435 41.7689V44.2464H171.47L171.425 43.6247ZM171.361 42.3004H171.134C170.542 42.3004 169.532 42.3004 169.532 42.9581C169.532 43.3455 169.932 43.5166 170.278 43.5166C171.006 43.5166 171.361 43.1383 171.361 42.5437V42.3004Z" fill="#B61F25"></path><path d="M173.554 39.9584H174.628V40.643C174.738 40.4042 174.916 40.2027 175.141 40.0634C175.366 39.9241 175.627 39.8531 175.893 39.8593C176.022 39.8619 176.151 39.8832 176.275 39.9223V40.9493C176.106 40.9005 175.932 40.8732 175.756 40.8683C175.608 40.8583 175.46 40.8787 175.321 40.9283C175.181 40.9778 175.054 41.0553 174.946 41.156C174.838 41.2567 174.753 41.3784 174.695 41.5133C174.637 41.6483 174.608 41.7937 174.609 41.9403V44.2466H173.554V39.9584Z" fill="#B61F25"></path><path d="M177.704 42.4444C177.727 42.728 177.861 42.9916 178.076 43.1798C178.292 43.3679 178.573 43.466 178.86 43.4534C179.084 43.4572 179.306 43.4066 179.506 43.3062C179.705 43.2057 179.877 43.0583 180.007 42.8769L180.78 43.4534C180.549 43.769 180.239 44.0203 179.881 44.183C179.523 44.3457 179.129 44.4144 178.736 44.3824C178.343 44.3505 177.966 44.2189 177.639 44.0004C177.313 43.7819 177.049 43.4839 176.873 43.1351C176.697 42.7863 176.614 42.3985 176.634 42.0089C176.653 41.6194 176.773 41.2414 176.983 40.9113C177.193 40.5811 177.485 40.3101 177.831 40.1241C178.177 39.9382 178.566 39.8438 178.96 39.8499C180.161 39.8499 180.971 40.6877 180.971 42.1652V42.4444H177.704ZM179.897 41.6517C179.903 41.5121 179.879 41.3729 179.826 41.2436C179.772 41.1142 179.692 40.9977 179.589 40.902C179.486 40.8062 179.364 40.7335 179.23 40.6888C179.097 40.644 178.955 40.6283 178.814 40.6427C178.675 40.6366 178.535 40.6579 178.403 40.7054C178.272 40.7529 178.151 40.8255 178.048 40.9192C177.945 41.013 177.861 41.1259 177.802 41.2516C177.743 41.3772 177.71 41.5132 177.704 41.6517H179.897Z" fill="#B61F25"></path><path d="M185.385 43.5706C185.228 43.812 185.008 44.0076 184.749 44.1374C184.49 44.2673 184.201 44.3266 183.911 44.3093C183.616 44.3217 183.322 44.272 183.048 44.1634C182.774 44.0549 182.526 43.89 182.322 43.6796C182.117 43.4692 181.96 43.2182 181.86 42.9432C181.761 42.6681 181.721 42.3753 181.745 42.0841C181.725 41.8008 181.764 41.5164 181.859 41.2484C181.954 40.9803 182.103 40.7343 182.297 40.5252C182.491 40.3161 182.726 40.1484 182.988 40.0323C183.25 39.9162 183.533 39.8541 183.82 39.8499C184.096 39.8414 184.371 39.8953 184.624 40.0077C184.876 40.1201 185.099 40.288 185.276 40.4985V37.5166H186.35V44.2462H185.385V43.5706ZM184.084 43.3454C184.341 43.3525 184.595 43.2834 184.812 43.1469C185.03 43.0103 185.201 42.8126 185.304 42.579C185.407 42.3455 185.438 42.0867 185.391 41.836C185.345 41.5853 185.224 41.354 185.044 41.1718C184.864 40.9896 184.633 40.8649 184.38 40.8135C184.128 40.7622 183.866 40.7866 183.628 40.8837C183.39 40.9808 183.187 41.146 183.044 41.3583C182.901 41.5706 182.826 41.8202 182.828 42.0751C182.823 42.2409 182.852 42.4061 182.913 42.5606C182.974 42.7151 183.066 42.8559 183.183 42.9745C183.3 43.093 183.44 43.187 183.595 43.2507C183.75 43.3145 183.916 43.3466 184.084 43.3454Z" fill="#B61F25"></path><path d="M217 9.11179C216.995 9.55643 216.857 9.98954 216.603 10.3565C216.349 10.7235 215.992 11.008 215.575 11.174C215.158 11.3401 214.701 11.3803 214.261 11.2897C213.822 11.199 213.419 10.9815 213.104 10.6646C212.789 10.3476 212.575 9.94547 212.491 9.50875C212.406 9.07203 212.454 8.6203 212.629 8.21049C212.803 7.80069 213.096 7.45115 213.471 7.20593C213.845 6.96071 214.285 6.83079 214.734 6.83254C215.034 6.83489 215.331 6.89572 215.607 7.01154C215.883 7.12736 216.134 7.2959 216.344 7.50755C216.555 7.7192 216.721 7.96981 216.833 8.24507C216.946 8.52032 217.003 8.81483 217 9.11179ZM216.682 9.11179C216.685 8.85592 216.638 8.60188 216.542 8.36434C216.445 8.12681 216.303 7.91049 216.122 7.72788C215.941 7.54527 215.725 7.39998 215.487 7.30043C215.248 7.20087 214.993 7.14901 214.734 7.14785C214.475 7.14903 214.218 7.20076 213.979 7.3001C213.74 7.39944 213.523 7.54443 213.341 7.7268C213.158 7.90917 213.014 8.12534 212.915 8.36298C212.817 8.60061 212.767 8.85506 212.769 9.11179C212.769 9.62549 212.975 10.1181 213.342 10.4814C213.709 10.8446 214.206 11.0487 214.725 11.0487C215.244 11.0487 215.742 10.8446 216.109 10.4814C216.476 10.1181 216.682 9.62549 216.682 9.11179ZM215.025 9.31899L215.735 10.328H215.417L214.716 9.34602H214.27V10.328H213.979V7.86856H214.834C214.938 7.85339 215.044 7.86159 215.145 7.89253C215.245 7.92348 215.337 7.97639 215.414 8.04733C215.491 8.11828 215.551 8.20545 215.589 8.30238C215.627 8.39931 215.643 8.50352 215.635 8.60729C215.644 8.69442 215.635 8.78241 215.609 8.86608C215.583 8.94976 215.54 9.02744 215.483 9.09457C215.427 9.1617 215.357 9.21693 215.278 9.25701C215.2 9.2971 215.114 9.32123 215.025 9.328V9.31899ZM214.252 9.08476H214.752C215.198 9.08476 215.326 8.85053 215.326 8.59828C215.329 8.53162 215.317 8.46508 215.292 8.4033C215.266 8.34152 215.228 8.28598 215.178 8.24054C215.129 8.1951 215.07 8.16084 215.006 8.14017C214.942 8.11949 214.874 8.11289 214.807 8.12081H214.252V9.08476Z" fill="#B61F25"></path></svg>